# xmcd CD database file
# Generated: Tue Oct 30 08:03:38 2007 by WSPse's MP3c
#
# Track frame offsets:
#       150
#       1463
#       17958
#       36335
#       52609
#       68451
#       92530
#       103721
#       127071
#       147790
#       168373
#       187575
#       207216
#       235484
#
# Disc length: 3935 seconds
#
# Revision: 0
# Processed by: cddbd v1.5.2PL0 Copyright (c) Steve Scherf et al.
# Submitted via: MP3c 0.31
#   WSPse pp3c-0.31 (NLS) - ENGLISH (Dec 27 2006) Default:MP3
#
DISCID=af0f5d0e
DTITLE=Mofro - Lochloosa
DYEAR=2004
DGENRE=Blues
TTITLE0=Y'all Ready
TTITLE1=That Boy
TTITLE2=Lochloosa
TTITLE3=Dirtfloorcracker
TTITLE4=Firelines
TTITLE5=Ten Thousand Islands
TTITLE6=Six Ways From Sunday
TTITLE7=The Wrong Side
TTITLE8=Everybody's
TTITLE9=Gal Youngin
TTITLE10=How Junior Got His Head Put Out
TTITLE11=The Long Way Home
TTITLE12=Pray For Rain
TTITLE13=DATA TRACK
EXTD=
EXTT0=
EXTT1=
EXTT2=
EXTT3=
EXTT4=
EXTT5=
EXTT6=
EXTT7=
EXTT8=
EXTT9=
EXTT10=
EXTT11=
EXTT12=
EXTT13=
PLAYORDER=
